<svg xmlns="http://www.w3.org/2000/svg" width="900" height="600" viewBox="0 0 900 600"> <title>Authentication Without Reproduction</title> <desc>Protocol steps verifying environmental state without full reproduction.</desc> <rect width="900" height="600" fill="white"/> <defs><marker id="arw" viewBox="0 0 10 10" refX="9" refY="5" markerWidth="6" markerHeight="6"><path d="M0 0 L10 5 L0 10Z" fill="#000"/></marker></defs> <g stroke="#000" fill="white" font-size="12"> <rect x="80" y="100" width="160" height="70"/><text x="90" y="140">Env Hash</text> <rect x="260" y="100" width="160" height="70"/><text x="275" y="140">Temporal Δ Sig</text> <rect x="440" y="100" width="160" height="70"/><text x="455" y="140">Spatial Δ Sig</text> <rect x="620" y="100" width="160" height="70"/><text x="640" y="140">Consensus</text> <rect x="260" y="240" width="160" height="70"/><text x="280" y="280">ZK Proof</text> <rect x="440" y="240" width="160" height="70"/><text x="455" y="280">Thermo Check</text> <rect x="350" y="380" width="200" height="80"/><text x="370" y="425">Authenticated State</text> </g> <g stroke="#000" fill="none" marker-end="url(#arw)"> <line x1="240" y1="135" x2="260" y2="135"/> <line x1="420" y1="135" x2="440" y2="135"/> <line x1="600" y1="135" x2="620" y2="135"/> <line x1="340" y1="170" x2="340" y2="240"/> <line x1="520" y1="170" x2="520" y2="240"/> <line x1="340" y1="310" x2="440" y2="380"/> <line x1="520" y1="310" x2="450" y2="380"/> </g> <g font-size="12"> <text x="120" y="520">No full reproduction: cryptographic + temporal + spatial + thermodynamic constraints suffice</text> </g> </svg>