<svg xmlns="http://www.w3.org/2000/svg" width="1200" height="1000" viewBox="0 0 1200 1000"> <title>Environmental Currency Generation Process</title> <desc>Seven-step process from capture to unit finalization with metrics.</desc> <rect width="1200" height="1000" fill="white"/> <defs><marker id="ag" viewBox="0 0 10 10" refX="9" refY="5" markerWidth="6" markerHeight="6"><path d="M0 0 L10 5 L0 10Z" fill="#000"/></marker></defs> <g stroke="#000" fill="white" font-size="14"> <rect x="120" y="140" width="200" height="80"/><text x="135" y="185">1 Multi-D Capture</text> <rect x="360" y="140" width="200" height="80"/><text x="380" y="185">2 Precision Calc</text> <rect x="600" y="140" width="200" height="80"/><text x="615" y="185">3 Uniqueness</text> <rect x="840" y="140" width="200" height="80"/><text x="855" y="185">4 Thermo Security</text> <rect x="240" y="320" width="200" height="80"/><text x="255" y="365">5 Cryptographic Bind</text> <rect x="480" y="320" width="200" height="80"/><text x="500" y="365">6 Network Consensus</text> <rect x="720" y="320" width="200" height="80"/><text x="730" y="365">7 Currency Final</text> </g> <g stroke="#000" fill="none" marker-end="url(#ag)"> <line x1="320" y1="180" x2="360" y2="180"/> <line x1="560" y1="180" x2="600" y2="180"/> <line x1="800" y1="180" x2="840" y2="180"/> <line x1="340" y1="220" x2="340" y2="320"/> <line x1="580" y1="220" x2="580" y2="320"/> <line x1="820" y1="220" x2="820" y2="320"/> </g> <g font-size="12"> <rect x="120" y="500" width="960" height="200" fill="white" stroke="#000"/> <text x="130" y="520">Performance Targets:</text> <text x="130" y="540">Generation latency &lt; 100ms | Uniqueness &gt; 99.999% | Thermo advantage &gt; 10^44</text> <text x="130" y="560">Consensus &lt; 1s | Capture 12D parallel &lt; 200ms | Verification 10ms | Reconstruction 5ms</text> </g> </svg>