<svg xmlns="http://www.w3.org/2000/svg" width="1400" height="1000" viewBox="0 0 1400 1000"> <title>Environmental Measurement Network</title> <desc>Distributed nodes with synchronization, consensus, and integration layers.</desc> <rect width="1400" height="1000" fill="white"/> <!-- Core network ring --> <g stroke="#000" fill="white" font-size="12"> <circle cx="700" cy="500" r="250" stroke="#000" fill="none"/> <circle cx="700" cy="500" r="120" stroke="#000" fill="none"/> <text x="650" y="505">Consensus Core</text> </g> <!-- Nodes --> <g stroke="#000" fill="white" font-size="10"> <circle cx="700" cy="250" r="35"/><text x="690" y="255">N1</text> <circle cx="900" cy="350" r="35"/><text x="890" y="355">N2</text> <circle cx="950" cy="550" r="35"/><text x="940" y="555">N3</text> <circle cx="700" cy="750" r="35"/><text x="690" y="755">N4</text> <circle cx="450" cy="650" r="35"/><text x="440" y="655">N5</text> <circle cx="430" cy="370" r="35"/><text x="420" y="375">N6</text> <circle cx="520" cy="250" r="35"/><text x="510" y="255">N7</text> <circle cx="880" cy="700" r="35"/><text x="870" y="705">N8</text> </g> <!-- Synchronization lines --> <g stroke="#000" stroke-dasharray="4 3"> <line x1="700" y1="250" x2="520" y2="250"/> <line x1="700" y1="250" x2="900" y2="350"/> <line x1="900" y1="350" x2="950" y2="550"/> <line x1="950" y1="550" x2="880" y2="700"/> <line x1="880" y1="700" x2="700" y2="750"/> <line x1="700" y1="750" x2="450" y2="650"/> <line x1="450" y1="650" x2="430" y2="370"/> <line x1="430" y1="370" x2="520" y2="250"/> </g> <!-- Labels --> <g font-size="12"> <text x="1030" y="300">Atomic Clock Sync &lt; 10ms</text> <text x="1030" y="325">Precision 12D sensors</text> <text x="1030" y="350">Consensus≥0.97</text> <text x="1030" y="375">Reliability 99.97%</text> </g> </svg>