<svg xmlns="http://www.w3.org/2000/svg" width="900" height="600" viewBox="0 0 900 600"> <title>Inflation Impossibility Proof</title> <desc>Logical chain showing contradiction in reproducing environmental states for inflation.</desc> <rect width="900" height="600" fill="white"/> <!-- Steps --> <g stroke="#000" fill="white" font-size="12"> <rect x="80" y="120" width="200" height="70"/><text x="95" y="160">Assume Duplicate</text> <rect x="340" y="120" width="200" height="70"/><text x="355" y="160">Need Env Reproduction</text> <rect x="600" y="120" width="200" height="70"/><text x="620" y="160">Energy ≥ 10^65 J</text> <rect x="80" y="260" width="200" height="70"/><text x="95" y="300">Coordination Across 12D</text> <rect x="340" y="260" width="200" height="70"/><text x="360" y="300">Precision Constraints</text> <rect x="600" y="260" width="200" height="70"/><text x="620" y="300">Contradiction</text> </g> <defs><marker id="aii" viewBox="0 0 10 10" refX="9" refY="5" markerWidth="6" markerHeight="6"><path d="M0 0 L10 5 L0 10Z" fill="#000"/></marker></defs> <g stroke="#000" fill="none" marker-end="url(#aii)"> <line x1="280" y1="155" x2="340" y2="155"/> <line x1="540" y1="155" x2="600" y2="155"/> <line x1="180" y1="190" x2="180" y2="260"/> <line x1="440" y1="190" x2="440" y2="260"/> <line x1="700" y1="190" x2="700" y2="260"/> </g> <text x="200" y="470" font-size="14">Result: Inflation via duplication impossible (thermodynamic + coordination barrier)</text> </svg>