<svg xmlns="http://www.w3.org/2000/svg" width="1200" height="800" viewBox="0 0 1200 800"> <title>MDTEC Cryptographic Engine Architecture</title> <desc>Internal components: dimensional processors, entropy analyzer, thermo calculator, key managers.</desc> <rect width="1200" height="800" fill="white"/> <!-- Engine boundary --> <rect x="120" y="100" width="960" height="600" stroke="#000" fill="white"/> <text x="540" y="130" font-size="16">MDTEC Engine</text> <!-- 12 processors grid --> <g stroke="#000" fill="white" font-size="10"> <!-- 3x4 grid --> <rect x="160" y="160" width="120" height="60"/><text x="170" y="195">Proc1</text> <rect x="300" y="160" width="120" height="60"/><text x="310" y="195">Proc2</text> <rect x="440" y="160" width="120" height="60"/><text x="450" y="195">Proc3</text> <rect x="580" y="160" width="120" height="60"/><text x="590" y="195">Proc4</text> <rect x="160" y="240" width="120" height="60"/><text x="170" y="275">Proc5</text> <rect x="300" y="240" width="120" height="60"/><text x="310" y="275">Proc6</text> <rect x="440" y="240" width="120" height="60"/><text x="450" y="275">Proc7</text> <rect x="580" y="240" width="120" height="60"/><text x="590" y="275">Proc8</text> <rect x="160" y="320" width="120" height="60"/><text x="170" y="355">Proc9</text> <rect x="300" y="320" width="120" height="60"/><text x="310" y="355">Proc10</text> <rect x="440" y="320" width="120" height="60"/><text x="450" y="355">Proc11</text> <rect x="580" y="320" width="120" height="60"/><text x="590" y="355">Proc12</text> </g> <!-- Other components --> <g stroke="#000" fill="white" font-size="12"> <rect x="760" y="170" width="260" height="70"/><text x="780" y="215">Entropy Analyzer</text> <rect x="760" y="260" width="260" height="70"/><text x="770" y="305">Thermo Security Calc</text> <rect x="760" y="350" width="260" height="70"/><text x="780" y="395">Temporal Key Manager</text> <rect x="760" y="440" width="260" height="70"/><text x="780" y="485">Spatial Verification Eng</text> <rect x="760" y="530" width="260" height="70"/><text x="795" y="575">Integration APIs</text> </g> <!-- Flows --> <g stroke="#000" stroke-dasharray="5 3" fill="none"> <line x1="700" y1="210" x2="760" y2="210"/> <line x1="700" y1="250" x2="760" y2="295"/> <line x1="700" y1="310" x2="760" y2="330"/> <line x1="700" y1="360" x2="760" y2="375"/> <line x1="700" y1="410" x2="760" y2="470"/> <line x1="700" y1="370" x2="760" y2="555"/> </g> </svg>