<svg xmlns="http://www.w3.org/2000/svg" width="1300" height="800" viewBox="0 0 1300 800"> <title>Monetary Fragment Distribution System</title> <desc>Fragment generation, distribution network nodes, reconstruction, and security validations.</desc> <rect width="1300" height="800" fill="white"/> <!-- Central source --> <g stroke="#000" fill="white" font-size="14"> <rect x="560" y="80" width="180" height="80"/><text x="575" y="125">Transaction Source</text> <rect x="540" y="200" width="220" height="70"/><text x="550" y="240">Fragment Generation</text> </g> <!-- Fragments --> <g stroke="#000" fill="white" font-size="10"> <rect x="520" y="300" width="60" height="40"/><text x="535" y="325">F1</text> <rect x="600" y="300" width="60" height="40"/><text x="615" y="325">F2</text> <rect x="680" y="300" width="60" height="40"/><text x="695" y="325">F3</text> <rect x="760" y="300" width="60" height="40"/><text x="775" y="325">F4</text> </g> <!-- Nodes --> <g stroke="#000" fill="white" font-size="10"> <circle cx="300" cy="480" r="50"/><text x="280" y="485">N1</text> <circle cx="500" cy="480" r="50"/><text x="480" y="485">N2</text> <circle cx="700" cy="480" r="50"/><text x="680" y="485">N3</text> <circle cx="900" cy="480" r="50"/><text x="880" y="485">N4</text> <circle cx="1100" cy="480" r="50"/><text x="1075" y="485">N5</text> </g> <!-- Reconstruction --> <rect x="560" y="620" width="180" height="80" stroke="#000" fill="white"/> <text x="575" y="665" font-size="14">Reconstruction</text> <!-- Arrows --> <defs><marker id="af" viewBox="0 0 10 10" refX="9" refY="5" markerWidth="6" markerHeight="6"><path d="M0 0 L10 5 L0 10Z" fill="#000"/></marker></defs> <g stroke="#000" fill="none" marker-end="url(#af)"> <line x1="650" y1="160" x2="650" y2="200"/> <line x1="550" y1="270" x2="330" y2="430"/> <line x1="640" y1="270" x2="520" y2="430"/> <line x1="720" y1="270" x2="700" y2="430"/> <line x1="800" y1="270" x2="880" y2="430"/> <line x1="770" y1="340" x2="1090" y2="430"/> <line x1="300" y1="530" x2="600" y2="620"/> <line x1="500" y1="530" x2="600" y2="620"/> <line x1="700" y1="530" x2="650" y2="620"/> <line x1="900" y1="530" x2="740" y2="620"/> </g> <!-- Security labels --> <g font-size="12"> <text x="420" y="360">Temporal windowing</text> <text x="820" y="360">Spatial windowing</text> <text x="560" y="715">Consensus threshold ≥ 0.97</text> <text x="1040" y="560">Fragment integrity checks</text> </g> </svg>