<svg xmlns="http://www.w3.org/2000/svg" width="1300" height="900" viewBox="0 0 1300 900"> <title>Performance Optimization Results Dashboard</title> <desc>Dashboard listing latency and performance achievements for operations.</desc> <rect width="1300" height="900" fill="white"/> <!-- Panels --> <g stroke="#000" fill="white" font-size="14"> <rect x="80" y="120" width="340" height="140"/><text x="95" y="160">Withdrawal latency 100ms</text><text x="95" y="185">Target Achieved</text> <rect x="480" y="120" width="340" height="140"/><text x="495" y="160">Payment verification 50ms</text><text x="495" y="185">Environmental Hash</text> <rect x="880" y="120" width="340" height="140"/><text x="895" y="160">Consensus &lt; 1s</text><text x="895" y="185">Distributed Validation</text> <rect x="80" y="320" width="340" height="140"/><text x="95" y="360">Encryption 200ms</text><text x="95" y="385">12D Capture Pipeline</text> <rect x="480" y="320" width="340" height="140"/><text x="495" y="360">Authenticity 10ms</text><text x="495" y="385">Thermo Check</text> <rect x="880" y="320" width="340" height="140"/><text x="895" y="360">Fragment Reconstruct 5ms</text><text x="895" y="385">Minimum k=3</text> </g> <!-- Simple gauge bars --> <g fill="#000"> <rect x="95" y="200" width="250" height="12"/> <rect x="495" y="200" width="220" height="12"/> <rect x="895" y="200" width="280" height="12"/> <rect x="95" y="400" width="200" height="12"/> <rect x="495" y="400" width="150" height="12"/> <rect x="895" y="400" width="120" height="12"/> </g> <g font-size="12"> <text x="80" y="520">Overall System Score: Targets met or exceeded</text> </g> </svg>