<svg xmlns="http://www.w3.org/2000/svg" width="1000" height="800" viewBox="0 0 1000 800"> <title>Thermodynamic Security Analysis</title> <desc>Energy requirement breakdown and comparison with universe energy.</desc> <rect width="1000" height="800" fill="white"/> <!-- Table proxy --> <g font-size="12" stroke="#000" fill="white"> <rect x="60" y="100" width="440" height="420"/> <text x="70" y="120">Dimension Energy (J)</text> <text x="70" y="140">Biometric 10^23</text> <text x="70" y="160">Spatial 10^25</text> <text x="70" y="180">Atmospheric 10^27</text> <text x="70" y="200">Cosmic 10^30</text> <text x="70" y="220">Orbital 10^32</text> <text x="70" y="240">Oceanic 10^28</text> <text x="70" y="260">Geological 10^29</text> <text x="70" y="280">Quantum 10^35</text> <text x="70" y="300">Computational 10^20</text> <text x="70" y="320">Acoustic 10^22</text> <text x="70" y="340">Ultrasonic 10^24</text> <text x="70" y="360">Visual 10^26</text> <text x="70" y="390">Base ≈ 10^35</text> <text x="70" y="410">Precision Multiplier 10^30</text> <text x="70" y="430">Total ≈ 10^65</text> </g> <!-- Comparison bar --> <g stroke="#000" fill="none"> <rect x="560" y="160" width="60" height="360" fill="white" stroke="#000"/> <rect x="660" y="60" width="60" height="460" fill="white" stroke="#000"/> <text x="545" y="540" font-size="12">10^65</text> <text x="655" y="540" font-size="12">10^69</text> <text x="530" y="150" font-size="12" transform="rotate(-90 530 150)">E_reproduction</text> <text x="750" y="150" font-size="12" transform="rotate(-90 750 150)">E_universe</text> </g> <g font-size="14"> <text x="560" y="560">S_thermo = E_rep / E_universe</text> <text x="560" y="580">Advantage_factor ≈ 10^44</text> <text x="560" y="600">Result: Thermodynamic impossibility for forgery</text> </g> </svg>