<svg xmlns="http://www.w3.org/2000/svg" width="1400" height="1000" viewBox="0 0 1400 1000"> <title>Unified Precision-by-Difference Coordination</title> <desc>Four domain circles feeding central coordination engine via precision differences.</desc> <rect width="1400" height="1000" fill="white"/> <!-- Domains --> <g stroke="#000" fill="white" font-size="14"> <circle cx="300" cy="300" r="120"/><text x="250" y="305">Temporal</text> <circle cx="1100" cy="300" r="120"/><text x="1055" y="305">Spatial</text> <circle cx="300" cy="700" r="120"/><text x="255" y="705">Economic</text> <circle cx="1100" cy="700" r="120"/><text x="1050" y="705">Individual</text> </g> <!-- Central engine --> <rect x="590" y="420" width="220" height="160" stroke="#000" fill="white"/> <text x="610" y="500" font-size="16">Coordination Engine</text> <!-- Arrows --> <defs><marker id="apc" viewBox="0 0 10 10" refX="9" refY="5" markerWidth="6" markerHeight="6"><path d="M0 0 L10 5 L0 10 Z" fill="#000"/></marker></defs> <g stroke="#000" marker-end="url(#apc)" fill="none" stroke-width="2"> <line x1="380" y1="360" x2="590" y2="450"/> <line x1="1020" y1="360" x2="810" y2="450"/> <line x1="380" y1="640" x2="590" y2="540"/> <line x1="1020" y1="640" x2="810" y2="540"/> </g> <!-- Formulas --> <g font-size="13"> <text x="120" y="120">ΔP_temporal(t)=T_ref(t)-T_local(t)</text> <text x="880" y="120">ΔP_spatial(x,t)=S_ref(x,t)-S_local(x,t)</text> <text x="120" y="900">ΔP_economic(a,t)=V_ref(a,t)-V_local(a,t)</text> <text x="840" y="900">ΔP_individual(i,t)=E_ref(i,t)-E_local(i,t)</text> </g> <g font-size="12"> <rect x="560" y="620" width="280" height="140" fill="white" stroke="#000"/> <text x="570" y="640">Performance Metrics:</text> <text x="570" y="660">Temporal sync error &lt; 10^-12 s</text> <text x="570" y="680">Spatial deviation &lt; 10^-14 m</text> <text x="570" y="700">Value variance &lt; ε_econ</text> <text x="570" y="720">Individual preference coherence &gt; 0.97</text> </g> </svg>