<svg xmlns="http://www.w3.org/2000/svg" width="900" height="600" viewBox="0 0 900 600"> <title>BMD Consciousness-Computation Equivalence</title> <desc>Parallel depiction of BMD frame selection and S-entropy navigation with equivalence mapping.</desc> <rect x="0" y="0" width="900" height="600" fill="white"/> <!-- Left process --> <g stroke="#000" fill="white" font-size="14"> <rect x="80" y="80" width="220" height="360"/> <text x="100" y="110">BMD Frame Selection</text> <rect x="100" y="140" width="180" height="60"/><text x="120" y="175">Frames f_i</text> <rect x="100" y="220" width="180" height="60"/><text x="120" y="255">Energy Eval</text> <rect x="100" y="300" width="180" height="60"/><text x="120" y="335">Minimize E+λR</text> <rect x="100" y="380" width="180" height="60"/><text x="120" y="415">Select f*</text> <g marker-end="url(#lArrow)" stroke-width="2"> <line x1="190" y1="200" x2="190" y2="220"/> <line x1="190" y1="280" x2="190" y2="300"/> <line x1="190" y1="360" x2="190" y2="380"/> </g> </g> <!-- Right process --> <g stroke="#000" fill="white" font-size="14"> <rect x="600" y="80" width="220" height="360"/> <text x="630" y="110">S-Entropy Navigation</text> <rect x="620" y="140" width="180" height="60"/><text x="640" y="175">States s</text> <rect x="620" y="220" width="180" height="60"/><text x="640" y="255">Compute S_econ</text> <rect x="620" y="300" width="180" height="60"/><text x="640" y="335">Descent dS/dt</text> <rect x="620" y="380" width="180" height="60"/><text x="640" y="415">Reach s*</text> <g marker-end="url(#lArrow)" stroke-width="2"> <line x1="710" y1="200" x2="710" y2="220"/> <line x1="710" y1="280" x2="710" y2="300"/> <line x1="710" y1="360" x2="710" y2="380"/> </g> </g> <defs> <marker id="lArrow" viewBox="0 0 10 10" refX="5" refY="5" markerWidth="6" markerHeight="6" orient="auto"> <path d="M0 0 L10 5 L0 10 z" fill="#000"/> </marker> </defs> <!-- Equivalence symbol --> <text x="410" y="260" font-size="80">≡</text> <text x="260" y="520" font-size="18">BMD_econ(allocation_frames) ≡ S-Navigation_econ(resource_space)</text> <!-- Mapping arrows --> <g stroke="#000" stroke-dasharray="5 3" marker-end="url(#lArrow)"> <line x1="300" y1="170" x2="600" y2="170"/> <line x1="300" y1="250" x2="600" y2="250"/> <line x1="300" y1="330" x2="600" y2="330"/> <line x1="300" y1="410" x2="600" y2="410"/> </g> <g font-size="12"> <text x="360" y="165">Isomorphism</text> <text x="360" y="245">Energy ↔ S-distance</text> <text x="360" y="325">Minimization ↔ Descent</text> <text x="360" y="405">f* ↔ s*</text> </g> </svg>