<svg xmlns="http://www.w3.org/2000/svg" width="1000" height="700" viewBox="0 0 1000 700"> <title>BMD Manufacturing Scalability</title> <desc>Charts showing manufacturing rate, quality vs scale, utilization, bottlenecks.</desc> <rect x="0" y="0" width="1000" height="700" fill="white"/> <!-- Manufacturing rate vs demand --> <g transform="translate(60,60)" font-size="12"> <text x="0" y="-10">Manufacturing Rate vs Demand</text> <rect x="0" y="0" width="380" height="250" fill="white" stroke="#000"/> <line x1="40" y1="220" x2="340" y2="220" stroke="#000"/> <line x1="40" y1="220" x2="40" y2="40" stroke="#000"/> <path d="M40 210 Q120 180 180 140 T300 60" stroke="#000" fill="none" stroke-width="2"/> <path d="M40 210 Q140 170 200 120 T320 40" stroke="#000" fill="none" stroke-dasharray="5 3"/> <text x="250" y="90">Rate</text> <text x="260" y="55">Demand</text> </g> <!-- Quality maintenance --> <g transform="translate(520,60)" font-size="12"> <text x="0" y="-10">Quality Across Scale</text> <rect x="0" y="0" width="380" height="250" fill="white" stroke="#000"/> <line x1="40" y1="220" x2="340" y2="220" stroke="#000"/> <line x1="40" y1="220" x2="40" y2="40" stroke="#000"/> <path d="M40 80 L340 90" stroke="#000" stroke-width="2"/> <text x="200" y="75">Quality ~ constant</text> </g> <!-- Resource utilization --> <g transform="translate(60,360)" font-size="12"> <text x="0" y="-10">Resource Utilization Efficiency</text> <rect x="0" y="0" width="380" height="250" fill="white" stroke="#000"/> <line x1="40" y1="220" x2="340" y2="220" stroke="#000"/> <line x1="40" y1="220" x2="40" y2="40" stroke="#000"/> <path d="M40 200 Q140 150 220 120 T340 100" stroke="#000" fill="none" stroke-width="2"/> <text x="200" y="115">Utilization→plateau</text> </g> <!-- Bottlenecks --> <g transform="translate(520,360)" font-size="12"> <text x="0" y="-10">Scalability Bottlenecks</text> <rect x="0" y="0" width="380" height="250" fill="white" stroke="#000"/> <line x1="40" y1="220" x2="340" y2="220" stroke="#000"/> <line x1="40" y1="220" x2="40" y2="40" stroke="#000"/> <path d="M40 210 Q160 180 240 160 Q300 140 320 100" stroke="#000" fill="none"/> <text x="250" y="155">Bandwidth</text> <text x="260" y="105">Human review</text> </g> </svg>