<svg xmlns="http://www.w3.org/2000/svg" width="1200" height="800" viewBox="0 0 1200 800"> <title>Complexity Comparison</title> <desc>Comparison of exponential traditional complexity vs logarithmic S-navigation.</desc> <rect x="0" y="0" width="1200" height="800" fill="white"/> <g transform="translate(140,120)"> <rect x="0" y="0" width="880" height="560" fill="white" stroke="#000"/> <text x="10" y="-10" font-size="16">Complexity: Time vs Problem Size n</text> <!-- Axes --> <line x1="60" y1="500" x2="780" y2="500" stroke="#000"/> <line x1="60" y1="500" x2="60" y2="60" stroke="#000"/> <text x="770" y="515" font-size="12">n</text> <text x="45" y="70" font-size="12">Time</text> <!-- Exponential curve --> <path d="M60 480 Q140 470 180 450 T260 400 T340 320 T420 200 T500 120 T580 90 T660 75 T740 70" stroke="#000" stroke-width="2" fill="none"/> <text x="600" y="110" font-size="12">O(e^n)</text> <!-- Log curve --> <path d="M60 480 Q140 470 220 460 T380 440 T540 420 T700 400" stroke="#000" stroke-dasharray="6 4" fill="none"/> <text x="650" y="410" font-size="12">O(log S₀)</text> <!-- Break-even region --> <rect x="300" y="200" width="80" height="300" fill="none" stroke="#000" stroke-dasharray="3 3"/> <text x="305" y="190" font-size="12">Advantage Region</text> <!-- Ratio note --> <text x="200" y="540" font-size="14">Performance ratio ~ O(e^n / log S₀)</text> <!-- Legend --> <g font-size="12"> <rect x="600" y="460" width="200" height="70" fill="white" stroke="#000"/> <line x1="610" y1="480" x2="650" y2="480" stroke="#000" stroke-width="2"/> <text x="655" y="484">Traditional</text> <line x1="610" y1="505" x2="650" y2="505" stroke="#000" stroke-dasharray="6 4"/> <text x="655" y="509">S-Navigation</text> </g> </g> </svg>