<svg xmlns="http://www.w3.org/2000/svg" width="1600" height="1200" viewBox="0 0 1600 1200"> <title>Complete S-Entropy System Architecture</title> <desc>Integrated architecture of all framework components.</desc> <rect x="0" y="0" width="1600" height="1200" fill="white"/> <!-- Components --> <g stroke="#000" fill="white" font-size="14"> <rect x="120" y="120" width="260" height="140"/><text x="150" y="190">S-Entropy Math</text> <rect x="120" y="340" width="260" height="140"/><text x="155" y="410">BMD Coordination</text> <rect x="120" y="560" width="260" height="140"/><text x="160" y="630">Virtual Circulation</text> <rect x="620" y="120" width="260" height="140"/><text x="650" y="190">Preference Extraction</text> <rect x="620" y="340" width="260" height="140"/><text x="650" y="410">Industrial Manufacturing</text> <rect x="620" y="560" width="260" height="140"/><text x="650" y="630">Strategic Optimization</text> <rect x="1120" y="260" width="300" height="220"/><text x="1140" y="340">Performance Engine</text> <rect x="1120" y="560" width="300" height="220"/><text x="1150" y="640">Integration & Validation</text> </g> <defs> <marker id="aSys" viewBox="0 0 10 10" refX="9" refY="5" markerWidth="6" markerHeight="6" orient="auto"><path d="M0 0 L10 5 L0 10 z" fill="#000"/></marker> </defs> <!-- Flows --> <g stroke="#000" fill="none" marker-end="url(#aSys)"> <path d="M380 190 H620"/> <path d="M380 410 H620"/> <path d="M380 630 H620"/> <path d="M880 190 H1120"/> <path d="M880 410 H1120"/> <path d="M880 630 H1120"/> <path d="M1270 480 V560"/> <path d="M1120 370 H880"/> </g> <!-- Feedback loops --> <g stroke="#000" stroke-dasharray="5 3" fill="none" marker-end="url(#aSys)"> <path d="M1120 310 Q1000 260 880 190"/> <path d="M1120 610 Q1000 590 880 630"/> </g> <!-- Legend --> <g font-size="12"> <rect x="120" y="880" width="400" height="160" fill="white" stroke="#000"/> <text x="130" y="905">Solid arrows: data/control flow</text> <text x="130" y="925">Dashed arrows: feedback loops</text> <text x="130" y="945">Performance Engine monitors all</text> <text x="130" y="965">Integration consolidates validation</text> </g> </svg>