<svg xmlns="http://www.w3.org/2000/svg" width="800" height="600" viewBox="0 0 800 600"> <title>Constructive Interference Mechanism</title> <desc>Wave analogy cancellation producing finite amplitude.</desc> <rect x="0" y="0" width="800" height="600" fill="white"/> <!-- Waves --> <g stroke="#000" fill="none"> <path d="M40 300 Q80 200 120 300 T200 300 T280 300 T360 300 T440 300 T520 300 T600 300" stroke-dasharray="6 4"/> <path d="M40 300 Q80 400 120 300 T200 300 T280 300 T360 300 T440 300 T520 300 T600 300" stroke-dasharray="6 4"/> <path d="M40 300 Q80 250 120 300 T200 300 T280 300 T360 300 T440 300 T520 300 T600 300" stroke-width="2"/> </g> <text x="620" y="255" font-size="12">Weighted sum</text> <text x="620" y="285" font-size="12">Finite amplitude</text> <!-- Weights --> <text x="120" y="180" font-size="12">w₁</text> <text x="120" y="420" font-size="12">w₂</text> <text x="120" y="260" font-size="12">w₁+w₂ pattern</text> </svg>