<svg xmlns="http://www.w3.org/2000/svg" width="1180" height="620" viewBox="0 0 1180 620" role="img" aria-labelledby="cmTitle cmDesc"> <title id="cmTitle">Consciousness-Mediated Resource Allocation</title> <desc id="cmDesc">Diagram of preference sensing, modeling (Ψ_a, Φ_r, Ξ_global), integrative synthesis f, dynamic feedback, and resulting allocation O_CM.</desc> <defs> <style> text { font-family: Arial, sans-serif; fill:#000; font-size:13px; } .h1 { font-size:22px; font-weight:700; } .h2 { font-size:16px; font-weight:700; } .h3 { font-size:14px; font-weight:700; } .mono { font-family:"Courier New", monospace; font-size:12.5px; } .panel { stroke:#000; stroke-width:2; fill:#fff; rx:14; } .box { stroke:#000; stroke-width:1.4; fill:#fff; rx:10; } .shade { fill:#f6f6f6; } .arrow { stroke:#000; stroke-width:2; fill:none; marker-end:url(#arrowHead2); } .thin { stroke-width:1.3; } .dashed { stroke-dasharray:5 4; } .loop { stroke:#000; stroke-width:1.4; fill:none; stroke-dasharray:4 3; } .note { font-size:11px; font-style:italic; } .bullet { font-weight:700; } </style> <marker id="arrowHead2" markerWidth="9" markerHeight="9" refX="7" refY="4.5" orient="auto"> <path d="M0,0 L9,4.5 L0,9 z" fill="#000"/> </marker> </defs>
<text x="590" y="38" text-anchor="middle" class="h1">Consciousness-Mediated Resource Allocation</text>
<text x="590" y="60" text-anchor="middle" class="note">Allocation emerges from explicit modeling of agent preference structures and systemic constraints</text>

<rect x="30" y="80" width="1120" height="500" class="panel"/> <!-- Sensing layer --> <g transform="translate(50,120)"> <rect width="300" height="130" class="box shade"/> <text x="150" y="22" text-anchor="middle" class="h3">Preference & State Sensing</text> <text x="12" y="50">Neural / behavioral signals</text> <text x="12" y="68">Interaction histories & choices</text> <text x="12" y="86">Contextual & temporal markers</text> <text x="12" y="104">Self-report & inferred latent traits</text> </g> <!-- Inference engine --> <g transform="translate(390,120)"> <rect width="310" height="130" class="box"/> <text x="155" y="22" text-anchor="middle" class="h3">AI Inference & Representation</text> <text x="12" y="50">Multimodal fusion</text> <text x="12" y="68">Latent embedding (Ψ_a)</text> <text x="12" y="86">Uncertainty quantification</text> <text x="12" y="104">Privacy-preserving transforms</text> </g> <!-- Data governance --> <g transform="translate(730,120)"> <rect width="390" height="130" class="box shade"/> <text x="195" y="22" text-anchor="middle" class="h3">Governance & Compliance</text> <text x="12" y="50">Access control / consent ledger</text> <text x="12" y="68">Bias monitoring & mitigation</text> <text x="12" y="86">Regulatory policy constraints</text> <text x="12" y="104">Audit & explainability interface</text> </g> <!-- Core modeling trio --> <g transform="translate(110,290)"> <rect width="200" height="140" class="box"/> <text x="100" y="22" text-anchor="middle" class="h3">Agent Model Ψ_a</text> <text x="12" y="50">Cognitive priorities</text> <text x="12" y="68">Affective valuation</text> <text x="12" y="86">Temporal discount profile</text> <text x="12" y="104">Context adaptation</text> </g> <g transform="translate(370,290)"> <rect width="180" height="140" class="box shade"/> <text x="90" y="22" text-anchor="middle" class="h3">Resource Model Φ_r</text> <text x="12" y="52">Attributes & quality tiers</text> <text x="12" y="70">Scarcity metrics</text> <text x="12" y="88">Substitutability graph</text> <text x="12" y="106">Externalities profile</text> </g> <g transform="translate(590,290)"> <rect width="200" height="140" class="box"/> <text x="100" y="22" text-anchor="middle" class="h3">Global Constraints Ξ_global</text> <text x="12" y="52">System goals (efficiency)</text> <text x="12" y="70">Fairness / equity rules</text> <text x="12" y="88">Sustainability bounds</text> <text x="12" y="106">Risk & resilience limits</text> </g> <!-- Synthesis function --> <g transform="translate(830,290)"> <rect width="290" height="140" class="box shade"/> <text x="145" y="22" text-anchor="middle" class="h3">Integrative Synthesis f</text> <text x="12" y="52">Maps (Ψ_a, Φ_r, Ξ_global) → O_CM</text> <text x="12" y="72">Multi-objective optimisation</text> <text x="12" y="92">Constraint satisfaction layer</text> <text x="12" y="112">Adaptive update mechanism</text> </g> <!-- Arrows sensing to models --> <path class="arrow" d="M350,185 L390,185"/> <path class="arrow" d="M700,185 L730,185"/> <!-- Down arrows to modeling --> <path class="arrow" d="M500,250 L460,290"/> <path class="arrow" d="M500,250 L520,290"/> <path class="arrow" d="M500,250 L360,290"/> <path class="arrow" d="M925,250 L945,290"/> <!-- Horizontal flows among models to synthesis --> <path class="arrow" d="M310,360 L370,360"/> <path class="arrow" d="M550,360 L590,360"/> <path class="arrow" d="M790,360 L830,360"/> <!-- Allocation output --> <g transform="translate(400,470)"> <rect width="380" height="90" class="box"/> <text x="190" y="22" text-anchor="middle" class="h3">Allocation Output O_CM</text> <text x="12" y="50">Personalized, dynamically updated assignment of resources across agents</text> <text x="12" y="68">Reflects multi-layer preference and system constraints</text> </g> <path class="arrow" d="M590,430 L590,470"/> <!-- Dynamic feedback loop --> <path class="loop" d="M780,515 Q920,515 980,485 Q1040,455 1040,410 Q1040,365 995,340 Q960,320 960,300"/> <path class="arrow thin" d="M960,300 Q960,270 930,250"/> <text x="1015" y="410" class="note" text-anchor="middle">Continuous feedback loop (real-time updates)</text> <!-- Advantages panel --> <g transform="translate(800,470)"> <rect width="320" height="90" class="box shade"/> <text x="160" y="22" text-anchor="middle" class="h3">Key Enablers / Advantages</text> <text x="12" y="46"><tspan class="bullet">•</tspan> Rich preference capture</text> <text x="12" y="62"><tspan class="bullet">•</tspan> AI inference of latent needs</text> <text x="12" y="78"><tspan class="bullet">•</tspan> Real-time adaptive optimisation</text> </g> <!-- Equation -->
<text x="590" y="570" text-anchor="middle" class="mono">O_CM(a,r) = f(Ψ_a, Φ_r, Ξ_global)</text>
<text x="590" y="590" text-anchor="middle" class="note">Model-centric paradigm: allocation emerges from explicit internal representations of agents and system goals.</text>
</svg>