<svg xmlns="http://www.w3.org/2000/svg" width="1200" height="800" viewBox="0 0 1200 800"> <title>Cross-Domain S-Transfer</title> <desc>Domains connected via universal S-space with transfer operators, efficiencies, and adaptation costs.</desc> <rect x="0" y="0" width="1200" height="800" fill="white"/> <!-- Central S-space --> <circle cx="600" cy="400" r="110" fill="white" stroke="#000" stroke-width="2"/> <text x="555" y="405" font-size="16">Universal S-Space</text> <text x="540" y="430" font-size="12">Ψ embedding</text> <!-- Domains --> <g font-size="14" stroke="#000" fill="white"> <rect x="120" y="180" width="160" height="80"/><text x="140" y="225">Manufacturing</text> <rect x="120" y="520" width="160" height="80"/><text x="165" y="565">Finance</text> <rect x="920" y="180" width="160" height="80"/><text x="950" y="225">Healthcare</text> <rect x="920" y="520" width="160" height="80"/><text x="940" y="565">Transportation</text> </g> <!-- Transfer arrows --> <defs> <marker id="tri" viewBox="0 0 10 10" refX="9" refY="5" markerWidth="6" markerHeight="6" orient="auto"> <path d="M0 0 L10 5 L0 10 z" fill="#000"/> </marker> </defs> <!-- Curved arrows to center --> <g stroke="#000" fill="none" stroke-width="2" marker-end="url(#tri)"> <path d="M280 220 Q440 250 490 360"/> <path d="M280 560 Q450 530 520 440"/> <path d="M920 220 Q760 250 710 360"/> <path d="M920 560 Q760 530 690 440"/> </g> <!-- Annotations for ι mappings --> <g font-size="12"> <text x="360" y="255">ι_M</text> <text x="360" y="520">ι_F</text> <text x="800" y="255">ι_H</text> <text x="800" y="520">ι_T</text> </g> <!-- Transfer between domains via center --> <g stroke="#000" stroke-dasharray="5 3" fill="none" marker-end="url(#tri)"> <path d="M200 260 Q270 400 600 400"/> <path d="M600 400 Q930 400 1000 520"/> </g> <text x="310" y="395" font-size="12">T_{M→S}</text> <text x="840" y="395" font-size="12">T_{S→T}</text> <!-- Efficiency & cost labels --> <g font-size="12"> <text x="450" y="300">η_MT, ε_MT</text> <text x="750" y="500">η_ST, ε_ST</text> </g> <!-- Inequality equation --> <text x="420" y="700" font-size="16">S_B(s_B, s_B*) ≤ η · S_A(s_A, s_A*) + ε</text> <text x="420" y="725" font-size="16">T_{A→B} = ι_B⁻¹ ∘ Ψ ∘ ι_A</text> <!-- Legend --> <g font-size="12"> <rect x="40" y="40" width="260" height="120" fill="white" stroke="#000"/> <line x1="50" y1="70" x2="90" y2="70" stroke="#000" stroke-width="2" marker-end="url(#tri)"/> <text x="95" y="74">Direct transfer path</text> <line x1="50" y1="95" x2="90" y2="95" stroke="#000" stroke-dasharray="5 3" marker-end="url(#tri)"/> <text x="95" y="99">Indirect composite path</text> <text x="50" y="120">η: efficiency coefficient</text> <text x="50" y="140">ε: adaptation cost</text> </g> </svg>