<svg xmlns="http://www.w3.org/2000/svg" width="1200" height="800" viewBox="0 0 1200 800"> <title>S-Entropy Economic Theory Integration</title> <desc>Integration nodes of S-entropy with various economic theories.</desc> <rect x="0" y="0" width="1200" height="800" fill="white"/> <!-- Central --> <circle cx="600" cy="400" r="110" stroke="#000" fill="white"/> <text x="545" y="405" font-size="16">S-Entropy Core</text> <!-- Surrounding theories --> <g stroke="#000" fill="white" font-size="14"> <rect x="320" y="120" width="160" height="60"/><text x="330" y="155">Market Equilibrium</text> <rect x="720" y="120" width="160" height="60"/><text x="745" y="155">Game Theory</text> <rect x="160" y="360" width="160" height="60"/><text x="170" y="395">Behavioral Econ</text> <rect x="880" y="360" width="160" height="60"/><text x="890" y="395">Information Econ</text> <rect x="450" y="620" width="160" height="60"/><text x="465" y="655">Network Econ</text> <rect x="720" y="620" width="160" height="60"/><text x="730" y="655">Strategic Impossibility</text> </g> <!-- Connections --> <g stroke="#000" fill="none"> <line x1="600" y1="290" x2="400" y2="180"/> <line x1="600" y1="290" x2="800" y2="180"/> <line x1="490" y1="400" x2="320" y2="390"/> <line x1="710" y1="400" x2="880" y2="390"/> <line x1="560" y1="510" x2="520" y2="620"/> <line x1="640" y1="510" x2="800" y2="620"/> </g> <g font-size="12"> <text x="615" y="250">Enhancements: predetermined solutions</text> <text x="420" y="450">Cross-domain optimization</text> <text x="650" y="470">Log complexity gain</text> </g> </svg>