<svg xmlns="http://www.w3.org/2000/svg" width="1400" height="1000" viewBox="0 0 1400 1000"> <title>Enhanced Comparative Performance Dashboard</title> <desc>Multi-metric dashboard comparing systems across complexity, scalability, overhead, extraction accuracy, coordination throughput.</desc> <rect x="0" y="0" width="1400" height="1000" fill="white"/> <!-- Layout: 2 columns of panels --> <g font-size="12" stroke="#000" fill="white"> <!-- Complexity Bars --> <rect x="60" y="60" width="600" height="220"/> <text x="70" y="80" font-size="14">Time Complexity</text> <!-- bars --> <g> <text x="80" y="110">Market</text><rect x="140" y="95" width="300" height="18" fill="#000"/> <text x="80" y="140">Central</text><rect x="140" y="125" width="340" height="18" fill="#000"/> <text x="80" y="170">Info-Theoretic</text><rect x="140" y="155" width="260" height="18" fill="#000"/> <text x="80" y="200">Consciousness</text><rect x="140" y="185" width="220" height="18" fill="#000"/> <text x="80" y="230">S-Entropy</text><rect x="140" y="215" width="120" height="18" fill="#000"/> <text x="80" y="260">Combined S</text><rect x="140" y="245" width="100" height="18" fill="#000"/> </g> <!-- Scalability curve --> <rect x="740" y="60" width="600" height="220"/> <text x="750" y="80" font-size="14">Scalability Growth</text> <line x1="780" y1="250" x2="1280" y2="250" stroke="#000"/> <line x1="780" y1="250" x2="780" y2="100" stroke="#000"/> <path d="M780 240 Q880 200 940 180 T1100 140 T1240 120" stroke="#000" fill="none"/> <text x="1100" y="130">S-Entropy</text> <!-- Overhead --> <rect x="60" y="320" width="600" height="220"/> <text x="70" y="340" font-size="14">Computational Overhead (relative)</text> <g> <text x="80" y="370">Market</text><rect x="160" y="355" width="220" height="18" fill="#000"/> <text x="80" y="400">Central</text><rect x="160" y="385" width="260" height="18" fill="#000"/> <text x="80" y="430">Info-Theoretic</text><rect x="160" y="415" width="200" height="18" fill="#000"/> <text x="80" y="460">S-Entropy</text><rect x="160" y="445" width="140" height="18" fill="#000"/> <text x="80" y="490">Combined S</text><rect x="160" y="475" width="150" height="18" fill="#000"/> </g> <!-- Preference Extraction Accuracy --> <rect x="740" y="320" width="600" height="220"/> <text x="750" y="340" font-size="14">Preference Extraction Accuracy</text> <line x1="780" y1="500" x2="1280" y2="500" stroke="#000"/> <line x1="780" y1="500" x2="780" y2="360" stroke="#000"/> <path d="M780 480 Q880 450 960 430 T1120 400 T1240 390" stroke="#000" fill="none"/> <text x="1120" y="395">Combined S</text> <!-- Coordination Throughput --> <rect x="60" y="580" width="600" height="220"/> <text x="70" y="600" font-size="14">Coordination Throughput</text> <path d="M100 770 Q220 730 300 690 T460 640" stroke="#000" fill="none"/> <text x="420" y="645">S-Entropy Lead</text> <!-- Legend --> <rect x="740" y="580" width="600" height="220"/> <text x="750" y="600" font-size="14">Legend / Systems</text> <text x="760" y="630">Market Mechanisms</text> <text x="760" y="650">Central Planning</text> <text x="760" y="670">Information-Theoretic</text> <text x="760" y="690">Consciousness-Mediated</text> <text x="760" y="710">S-Entropy Navigation</text> <text x="760" y="730">Virtual Circulation</text> <text x="760" y="750">Combined S-Framework</text> </g> </svg>