<svg xmlns="http://www.w3.org/2000/svg" width="1400" height="1000" viewBox="0 0 1400 1000"> <title>Coordination Mechanism Foundry Architecture</title> <desc>Industrial process pipeline for manufacturing coordination mechanisms.</desc> <rect x="0" y="0" width="1400" height="1000" fill="white"/> <!-- Stations --> <g stroke="#000" fill="white" font-size="14"> <rect x="80" y="160" width="200" height="120"/><text x="95" y="210">1. Requirement</text><text x="95" y="230">Analysis</text> <rect x="340" y="160" width="200" height="120"/><text x="360" y="210">2. Template</text><text x="360" y="230">Pattern Gen</text> <rect x="600" y="160" width="200" height="120"/><text x="620" y="210">3. Mechanism</text><text x="620" y="230">Instantiation</text> <rect x="860" y="160" width="200" height="120"/><text x="880" y="210">4. Quality</text><text x="880" y="230">Validation</text> <rect x="1120" y="160" width="200" height="120"/><text x="1140" y="210">5. Deployment</text><text x="1140" y="230">Preparation</text> </g> <defs> <marker id="aM" viewBox="0 0 10 10" refX="9" refY="5" markerWidth="6" markerHeight="6" orient="auto"><path d="M0 0 L10 5 L0 10 z" fill="#000"/></marker> </defs> <g stroke="#000" stroke-width="2" fill="none" marker-end="url(#aM)"> <line x1="280" y1="220" x2="340" y2="220"/> <line x1="540" y1="220" x2="600" y2="220"/> <line x1="800" y1="220" x2="860" y2="220"/> <line x1="1060" y1="220" x2="1120" y2="220"/> </g> <!-- Parallel lines (assembly lines) --> <g stroke="#000" fill="none"> <path d="M600 320 Q620 360 640 380 Q660 400 680 420" stroke-dasharray="6 4"/> <path d="M860 320 Q880 360 900 380 Q920 400 940 420" stroke-dasharray="6 4"/> </g> <!-- Output products --> <g stroke="#000" fill="white" font-size="10"> <rect x="1120" y="350" width="50" height="40"/><text x="1125" y="375">C1</text> <rect x="1180" y="350" width="50" height="40"/><text x="1185" y="375">C2</text> <rect x="1240" y="350" width="50" height="40"/><text x="1245" y="375">C3</text> </g> <!-- QA checkpoints --> <g stroke="#000" fill="white" font-size="10"> <circle cx="960" cy="320" r="16"/><text x="952" y="324">QA</text> <circle cx="890" cy="420" r="16"/><text x="882" y="424">QA</text> </g> </svg>