<svg xmlns="http://www.w3.org/2000/svg" width="1180" height="560" viewBox="0 0 1180 560" role="img" aria-labelledby="itTitle itDesc"> <title id="itTitle">Information-Theoretic Resource Allocation</title> <desc id="itDesc">Diagram showing inputs (resources, demands, constraints) forming an allocation distribution optimized via entropy minimization under constraints, with distributed computation and listed advantages.</desc> <defs> <style> text { font-family: Arial, sans-serif; fill:#000; font-size:13px; } .h1 { font-size:22px; font-weight:700; } .h2 { font-size:16px; font-weight:700; } .h3 { font-size:14px; font-weight:700; } .mono { font-family:"Courier New", monospace; font-size:12.5px; } .panel { stroke:#000; stroke-width:2; fill:#fff; rx:14; } .box { stroke:#000; stroke-width:1.4; fill:#fff; rx:10; } .shade { fill:#f6f6f6; } .arrow { stroke:#000; stroke-width:2; fill:none; marker-end:url(#arrowHead); } .thin { stroke-width:1.4; } .dashed { stroke-dasharray:5 4; } .note { font-size:11px; font-style:italic; } .bullet { font-weight:700; } .brace { stroke:#000; stroke-width:1.2; fill:none; } </style> <marker id="arrowHead" markerWidth="9" markerHeight="9" refX="7" refY="4.5" orient="auto"> <path d="M0,0 L9,4.5 L0,9 z" fill="#000"/> </marker> </defs>
<text x="590" y="36" text-anchor="middle" class="h1">Information-Theoretic Resource Allocation</text>
<text x="590" y="58" text-anchor="middle" class="note">Entropy minimisation of allocation distribution under feasibility and efficiency constraints</text>

<!-- Main panel --> <rect x="30" y="80" width="1120" height="440" class="panel"/> <!-- Left column: Inputs --> <g transform="translate(50,110)"> <rect width="220" height="160" class="box shade"/> <text x="110" y="22" text-anchor="middle" class="h3">Input Layer</text> <text x="12" y="50">Resource supply vector S</text> <text x="12" y="68">Demand / requirement set D</text> <text x="12" y="86">Constraint matrix C</text> <text x="12" y="104">Feasibility region 𝔽</text> <text x="12" y="122">Efficiency thresholds η</text> <text x="12" y="140">Policy bounds (fairness, risk)</text> </g> <!-- Distribution formation --> <g transform="translate(300,110)"> <rect width="210" height="160" class="box"/> <text x="105" y="22" text-anchor="middle" class="h3">Allocation Distribution</text> <text x="12" y="50">Represent allocation as</text> <text x="12" y="68" class="mono">O(a,r) ≥ 0, Σ_{a,r} O = 1</text> <text x="12" y="90">Embedding: allocate → prob. mass</text> <text x="12" y="110">Interpretable as coding distribution</text> <text x="12" y="130">Supports entropy functional H(O)</text> </g> <!-- Entropy functional --> <g transform="translate(550,110)"> <rect width="240" height="160" class="box shade"/> <text x="120" y="22" text-anchor="middle" class="h3">Objective Functional</text> <text x="12" y="52" class="mono">H(O) = - Σ_{a,r} O(a,r) log O(a,r)</text> <text x="12" y="74">Seek compact (low information) pattern</text> <text x="12" y="92">Reduces uncertainty cost</text> <text x="12" y="110">Implicit regularisation</text> <text x="12" y="128">Facilitates robustness under noise</text> </g> <!-- Optimization Solver --> <g transform="translate(820,110)"> <rect width="300" height="160" class="box"/> <text x="150" y="22" text-anchor="middle" class="h3">Optimisation Engine</text> <text x="12" y="50" class="mono">O_IT = argmin_{O∈𝔽} H(O)</text> <text x="12" y="72">Methods:</text> <text x="30" y="90">• Convex solvers (mirror descent)</text> <text x="30" y="108">• Distributed dual decomposition</text> <text x="30" y="126">• Entropy-regularised flows</text> <text x="30" y="144">• ADMM / primal-dual updates</text> </g> <!-- Arrows main flow --> <path class="arrow" d="M270,190 L300,190"/> <path class="arrow" d="M510,190 L550,190"/> <path class="arrow" d="M790,190 L820,190"/> <!-- Output allocation --> <g transform="translate(820,300)"> <rect width="300" height="110" class="box shade"/> <text x="150" y="22" text-anchor="middle" class="h3">Result: Allocation O_IT</text> <text x="12" y="48">Feasible, low-entropy distribution</text> <text x="12" y="66">Encodes compressed coordination info</text> <text x="12" y="84">Supports scalable dissemination</text> </g> <path class="arrow" d="M970,270 L970,300"/> <!-- Advantages --> <g transform="translate(50,300)"> <rect width="740" height="190" class="box"/> <text x="370" y="22" text-anchor="middle" class="h3">Advantages</text> <text x="14" y="50"><tspan class="bullet">•</tspan> Objective optimisation independent of subjective utility reports</text> <text x="14" y="68"><tspan class="bullet">•</tspan> Computational tractability (convex entropy landscape, strong duality)</text> <text x="14" y="86"><tspan class="bullet">•</tspan> Naturally distributed (local gradient contributions aggregate)</text> <text x="14" y="104"><tspan class="bullet">•</tspan> Robust to missing / noisy data (entropy minimisation penalises dispersion)</text> <text x="14" y="122"><tspan class="bullet">•</tspan> Information compression reduces signalling overhead</text> <text x="14" y="140"><tspan class="bullet">•</tspan> Aligns with communication channel capacity limits</text> <text x="14" y="158"><tspan class="bullet">•</tspan> Transparent objective; facilitates auditability</text> </g> <!-- Distributed computation ring (symbolic) --> <g transform="translate(600,370)"> <circle cx="0" cy="0" r="54" fill="none" stroke="#000" stroke-width="1.4" class="dashed"/> <circle cx="-40" cy="-6" r="10" fill="#fff" stroke="#000" stroke-width="1.2"/> <circle cx="38" cy="-10" r="10" fill="#fff" stroke="#000" stroke-width="1.2"/> <circle cx="-4" cy="40" r="10" fill="#fff" stroke="#000" stroke-width="1.2"/> <text x="0" y="4" text-anchor="middle" class="small mono">Distributed Nodes</text> </g> <!-- Comparative annotation -->
<text x="590" y="530" text-anchor="middle" class="note">Core principle: choose the feasible allocation encoding the least informational complexity.</text>
</svg>