<svg xmlns="http://www.w3.org/2000/svg" width="900" height="340" viewBox="0 0 900 340" role="img" aria-labelledby="f2title f2desc"> <title id="f2title">Figure 2: Proof Construction Flow</title> <desc id="f2desc">Sequential construction establishing equivalence: market welfare optimum mapped to information-theoretic entropy minimization, then replicated by central planning, then by consciousness-mediated modeling, and generalized.</desc> <defs> <style> text { font-family: Arial, sans-serif; font-size:14px; fill:#111; } .box { stroke:#000; stroke-width:2; fill:#fff; rx:10; ry:10; } .narrow { width:160px; } .head { font-weight:700; font-size:15px; } .math { font-family:"Courier New", monospace; font-size:13px; } .arrow { stroke:#000; stroke-width:2.2; fill:none; marker-end:url(#f2arrow); } .note { font-size:12px; font-style:italic; fill:#333; } </style> <marker id="f2arrow" markerWidth="10" markerHeight="10" refX="8" refY="5" orient="auto"> <path d="M0,0 L10,5 L0,10 z" fill="#000"/> </marker> </defs> <!-- Step boxes --> <g transform="translate(40,60)"> <rect class="box" width="170" height="110"/> <text x="85" y="24" text-anchor="middle" class="head">Step 1</text> <text x="10" y="44">Market optimum</text> <text x="10" y="62" class="math">O*_market</text> <text x="10" y="80" class="note">Welfare theorems</text> </g> <g transform="translate(250,60)"> <rect class="box" width="190" height="110"/> <text x="95" y="24" text-anchor="middle" class="head">Step 1 (cont.)</text> <text x="10" y="46">Constrained entropy</text> <text x="10" y="63" class="math">min H(O)</text> <text x="10" y="81" class="math">s.t. C_constraints</text> <text x="10" y="99" class="math">O*_IT = O*_market</text> </g> <g transform="translate(480,60)"> <rect class="box" width="170" height="110"/> <text x="85" y="24" text-anchor="middle" class="head">Step 2</text> <text x="10" y="46">Central planning</text> <text x="10" y="64" class="math">max W(O)</text> <text x="10" y="82" class="math">O*_CP = O*_market</text> </g> <g transform="translate(680,60)"> <rect class="box" width="180" height="110"/> <text x="90" y="24" text-anchor="middle" class="head">Step 3</text> <text x="10" y="46">Consciousness model</text> <text x="10" y="64" class="math">Ψ_a ⇒ O*_CM</text> <text x="10" y="82" class="math">O*_CM = O*_market</text> </g> <g transform="translate(260,210)"> <rect class="box" width="380" height="100"/> <text x="190" y="26" text-anchor="middle" class="head">Step 4: Generalization</text> <text x="15" y="50">Any optimal allocation O* can be realized</text> <text x="15" y="68">by constructing an equivalent framework</text> <text x="15" y="86" class="math">∀ O* ∃ {E_i} with F(E_i)=F(O*)</text> </g> <!-- Arrows --> <path class="arrow" d="M210,115 L250,115"/> <path class="arrow" d="M440,115 L480,115"/> <path class="arrow" d="M650,115 L680,115"/> <path class="arrow" d="M470,170 L450,210"/> <path class="arrow" d="M520,170 L540,210"/> <!-- Legend -->
<text x="40" y="20" class="head">Proof Mapping</text>
<text x="40" y="38" class="note">Constructive equivalences preserve optimality</text>
</svg>