<svg xmlns="http://www.w3.org/2000/svg" width="900" height="700" viewBox="0 0 900 700"> <defs> <style> text { font-family: "Helvetica Neue", Arial, sans-serif; font-size:15px; fill:#000; } .heading { font-weight:700; font-size:16px; } .node-box { fill:#fff; stroke:#000; stroke-width:2; rx:6; ry:6; } .circle { fill:#fff; stroke:#000; stroke-width:2; } .arrow { stroke:#000; stroke-width:3.2; fill:none; marker-start:url(#ah); marker-end:url(#ah); } .label { font-size:13px; font-style:italic; } </style> <marker id="ah" markerWidth="10" markerHeight="10" refX="5" refY="5" orient="auto"> <path d="M0,0 L10,5 L0,10 z" fill="#000"/> </marker> </defs> <circle cx="450" cy="350" r="70" class="circle"/> <text x="450" y="325" text-anchor="middle" class="heading">Optimal</text> <text x="450" y="347" text-anchor="middle" class="heading">Allocation</text> <text x="450" y="372" text-anchor="middle" font-size="14px">O*</text> <g transform="translate(120,140)"> <rect class="node-box" width="220" height="160"/> <text x="110" y="22" text-anchor="middle" class="heading">Market Systems</text> <text x="12" y="48"> <tspan x="12" dy="0">• Price mechanisms</tspan> <tspan x="12" dy="18">• Supply/demand equilibrium</tspan> <tspan x="12" dy="18">• Invisible hand coordination</tspan> <tspan x="12" dy="22">F(E1) = F(E*)</tspan> </text> </g> <g transform="translate(560,140)"> <rect class="node-box" width="220" height="160"/> <text x="110" y="22" text-anchor="middle" class="heading">Central Planning</text> <text x="12" y="48"> <tspan x="12" dy="0">• Direct optimization</tspan> <tspan x="12" dy="18">• Global welfare maximization</tspan> <tspan x="12" dy="18">• Resource command allocation</tspan> <tspan x="12" dy="22">F(E2) = F(E*)</tspan> </text> </g> <g transform="translate(120,500)"> <rect class="node-box" width="220" height="180"/> <text x="110" y="22" text-anchor="middle" class="heading">Information-Theoretic</text> <text x="12" y="48"> <tspan x="12" dy="0">• Entropy minimization</tspan> <tspan x="12" dy="18">• Computational coordination</tspan> <tspan x="12" dy="18">• Algorithm-based allocation</tspan> <tspan x="12" dy="22">F(E3) = F(E*)</tspan> </text> </g> <g transform="translate(560,500)"> <rect class="node-box" width="220" height="180"/> <text x="110" y="22" text-anchor="middle" class="heading">Consciousness-Mediated</text> <text x="12" y="48"> <tspan x="12" dy="0">• Preference modeling</tspan> <tspan x="12" dy="18">• Consciousness quantification</tspan> <tspan x="12" dy="18">• Post-labor distribution</tspan> <tspan x="12" dy="22">F(E4) = F(E*)</tspan> </text> </g> <!-- Arrows --> <path class="arrow" d="M340,220 L415,305"/> <text class="label" x="372" y="255" transform="rotate(48,372,255)" text-anchor="middle">T_{1 ↔ 0}</text> <path class="arrow" d="M560,220 L485,305"/> <text class="label" x="528" y="255" transform="rotate(-48,528,255)" text-anchor="middle">T_{2 ↔ 0}</text> <path class="arrow" d="M340,600 L415,420"/> <text class="label" x="372" y="505" transform="rotate(-65,372,505)" text-anchor="middle">T_{3 ↔ 0}</text> <path class="arrow" d="M560,600 L485,420"/> <text class="label" x="528" y="505" transform="rotate(65,528,505)" text-anchor="middle">T_{4 ↔ 0}</text> <text x="450" y="670" text-anchor="middle" font-weight="700"> Mathematical Proof: All paradigms achieve identical efficiency F(E*) </text> <text x="450" y="690" text-anchor="middle"> through different organizational structures </text> </svg>