<svg xmlns="http://www.w3.org/2000/svg" width="1400" height="800" viewBox="0 0 1400 800"> <title>Policy Implementation Pathway</title> <desc>Phased roadmap for implementing S-entropy resource allocation.</desc> <rect x="0" y="0" width="1400" height="800" fill="white"/> <g stroke="#000" fill="white" font-size="14"> <rect x="80" y="200" width="160" height="100"/><text x="100" y="250">1. Pilot</text> <rect x="280" y="200" width="160" height="100"/><text x="285" y="250">2. Small-Scale</text> <rect x="480" y="200" width="160" height="100"/><text x="490" y="250">3. Validation</text> <rect x="680" y="200" width="160" height="100"/><text x="700" y="250">4. Scaling</text> <rect x="880" y="200" width="160" height="100"/><text x="890" y="250">5. Deployment</text> <rect x="1080" y="200" width="160" height="100"/><text x="1090" y="250">6. Policy Integration</text> </g> <defs> <marker id="aPol" viewBox="0 0 10 10" refX="9" refY="5" markerWidth="6" markerHeight="6" orient="auto"><path d="M0 0 L10 5 L0 10 z" fill="#000"/></marker> </defs> <g stroke="#000" stroke-width="2" fill="none" marker-end="url(#aPol)"> <line x1="240" y1="250" x2="280" y2="250"/> <line x1="440" y1="250" x2="480" y2="250"/> <line x1="640" y1="250" x2="680" y2="250"/> <line x1="840" y1="250" x2="880" y2="250"/> <line x1="1040" y1="250" x2="1080" y2="250"/> </g> <!-- Stakeholder lanes --> <g font-size="12"> <text x="80" y="150">Stakeholders:</text> <text x="80" y="170">Gov • Private • Academic • Public • International</text> <text x="80" y="340">Integration tasks escalate per phase</text> </g> </svg>