<svg xmlns="http://www.w3.org/2000/svg" width="1200" height="600" viewBox="0 0 1200 600"> <title>Research and Development Roadmap</title> <desc>Timeline of milestones over 10 years.</desc> <rect x="0" y="0" width="1200" height="600" fill="white"/> <!-- Timeline --> <line x1="100" y1="300" x2="1100" y2="300" stroke="#000" stroke-width="2"/> <g stroke="#000" fill="white"> <circle cx="200" cy="300" r="10"/><text x="170" y="260" font-size="12">6 mo</text><text x="160" y="280" font-size="12">Math validation</text> <circle cx="350" cy="300" r="10"/><text x="330" y="260" font-size="12">1 yr</text><text x="320" y="280" font-size="12">Prototype</text> <circle cx="500" cy="300" r="10"/><text x="485" y="260" font-size="12">2 yr</text><text x="470" y="280" font-size="12">Small-scale</text> <circle cx="750" cy="300" r="10"/><text x="735" y="260" font-size="12">5 yr</text><text x="710" y="280" font-size="12">Large-scale</text> <circle cx="1000" cy="300" r="10"/><text x="980" y="260" font-size="12">10 yr</text><text x="950" y="280" font-size="12">Universal adoption</text> </g> <!-- Progress arrow --> <defs> <marker id="aR" viewBox="0 0 10 10" refX="9" refY="5" markerWidth="6" markerHeight="6"> <path d="M0 0 L10 5 L0 10 z" fill="#000"/> </marker> </defs> <line x1="100" y1="300" x2="1100" y2="300" stroke="#000" stroke-dasharray="4 4" marker-end="url(#aR)"/> <!-- Areas --> <g font-size="12"> <text x="120" y="380">Theoretical Extensions</text> <text x="300" y="400">Implementation Optimization</text> <text x="520" y="380">Application Domains</text> <text x="760" y="400">Technology Integration</text> <text x="980" y="380">Validation Methodologies</text> </g> </svg>