<svg xmlns="http://www.w3.org/2000/svg" width="1000" height="800" viewBox="0 0 1000 800"> <title>Technology Integration Opportunities</title> <desc>Map of technologies integrating with S-entropy core.</desc> <rect x="0" y="0" width="1000" height="800" fill="white"/> <circle cx="500" cy="400" r="110" stroke="#000" fill="white"/> <text x="450" y="405" font-size="16">S-Entropy Core</text> <!-- Surrounding tech nodes --> <g stroke="#000" fill="white" font-size="12"> <rect x="440" y="140" width="120" height="60"/><text x="455" y="175">AI Systems</text> <rect x="720" y="320" width="140" height="60"/><text x="730" y="355">Blockchain</text> <rect x="640" y="560" width="140" height="60"/><text x="665" y="595">IoT</text> <rect x="220" y="560" width="160" height="60"/><text x="240" y="595">Quantum Computing</text> <rect x="140" y="320" width="140" height="60"/><text x="160" y="355">Edge Computing</text> <rect x="310" y="180" width="100" height="50"/><text x="320" y="210">5G/6G</text> </g> <!-- Connections --> <g stroke="#000" fill="none"> <line x1="500" y1="290" x2="500" y2="200"/> <line x1="560" y1="400" x2="720" y2="350"/> <line x1="540" y1="470" x2="660" y2="560"/> <line x1="460" y1="470" x2="300" y2="560"/> <line x1="440" y1="400" x2="280" y2="350"/> <line x1="470" y1="310" x2="360" y2="230"/> </g> <!-- Synergy annotations --> <g font-size="12"> <text x="520" y="230">AI-enhanced calculations</text> <text x="620" y="360">Verification ledgers</text> <text x="560" y="540">Sensor data ingestion</text> <text x="280" y="540">Quantum acceleration</text> <text x="200" y="310">Edge inference</text> <text x="340" y="170">Low-latency comms</text> </g> </svg>